<?xml version="1.0" standalone="no"?>
<!DOCTYPE svg PUBLIC "-//W3C//DTD SVG 20010904//EN"
 "http://www.w3.org/TR/2001/REC-SVG-20010904/DTD/svg10.dtd">
<svg version="1.0" xmlns="http://www.w3.org/2000/svg"
 width="700.000000pt" height="700.000000pt" viewBox="0 0 700.000000 700.000000"
 preserveAspectRatio="xMidYMid meet">
<metadata>
Created by potrace 1.11, written by Peter Selinger 2001-2013
</metadata>
<g transform="translate(0.000000,700.000000) scale(0.100000,-0.100000)"
fill="#000000" stroke="none">
<path d="M3409 6477 c-92 -45 -211 -101 -644 -302 -209 -97 -407 -189 -440
-205 -33 -16 -113 -53 -178 -84 -65 -31 -120 -56 -122 -56 -2 0 -74 -34 -161
-76 -87 -41 -166 -76 -174 -76 -8 -1 -35 8 -60 19 -25 11 -121 53 -215 93 -93
40 -193 83 -221 96 -27 12 -72 32 -100 42 -27 11 -74 31 -104 45 -31 14 -80
35 -109 47 -30 11 -73 29 -95 40 -23 10 -169 73 -326 140 -157 67 -298 128
-315 135 -75 33 -128 55 -136 55 -5 0 -8 -1064 -7 -2472 l3 -2472 810 -464
c446 -255 820 -467 832 -472 11 -5 24 -14 28 -20 4 -7 38 6 98 38 51 27 142
75 202 107 61 32 115 61 120 65 6 4 62 34 125 67 139 73 352 186 475 253 28
15 97 52 155 83 58 30 132 69 165 87 33 18 98 52 145 77 47 25 143 77 213 115
l128 69 32 -19 c18 -11 82 -45 142 -77 61 -32 133 -70 160 -85 28 -15 88 -48
135 -72 116 -62 379 -202 465 -248 108 -58 371 -198 460 -245 44 -23 123 -65
176 -94 53 -28 129 -68 169 -90 l73 -38 56 24 c31 14 74 33 96 43 22 9 364
156 760 325 396 169 724 311 730 316 5 5 17 9 27 9 17 0 18 103 18 2595 0
1676 -3 2595 -10 2595 -5 0 -29 -9 -52 -19 -54 -24 -68 -30 -328 -141 -118
-50 -228 -98 -245 -105 -16 -8 -158 -68 -315 -135 -157 -67 -304 -130 -327
-141 -24 -10 -82 -35 -130 -55 -48 -20 -110 -47 -138 -59 -27 -12 -71 -32 -96
-43 l-46 -20 -299 140 c-165 76 -317 147 -339 158 -44 20 -166 78 -375 175
-74 34 -175 82 -225 105 -49 23 -112 52 -140 65 -51 23 -131 60 -313 146 -56
27 -112 49 -125 48 -12 0 -51 -15 -88 -32z"/>
</g>
</svg>
